<?xml version="1.0" encoding="utf-8"?>
<!-- Generator: Adobe Illustrator 24.0.2, SVG Export Plug-In . SVG Version: 6.00 Build 0)  -->
<svg version="1.1" xmlns="http://www.w3.org/2000/svg" xmlns:xlink="http://www.w3.org/1999/xlink" x="0px" y="0px"
	 viewBox="0 0 520 520" style="enable-background:new 0 0 520 520;" xml:space="preserve">
<style type="text/css">
	.st0{fill:none;stroke:#E6233A;stroke-miterlimit:10;}
	.st1{fill:none;stroke:#8C2033;stroke-width:3;stroke-miterlimit:10;}
	.st2{fill:none;stroke:#E6233A;stroke-width:3;stroke-miterlimit:10;}
	.st3{clip-path:url(#SVGID_2_);fill:#B64894;}
	.st4{fill:url(#SVGID_3_);}
	.st5{fill:none;stroke:#C9C429;stroke-miterlimit:10;}
	.st6{fill:url(#SVGID_4_);}
	.st7{opacity:0.22;}
	.st8{opacity:0.35;}
	.st9{opacity:0.56;}
	.st10{fill:none;stroke:#2A2B63;stroke-width:0.75;stroke-miterlimit:10;}
	.st11{fill:none;stroke:#454293;stroke-width:0.75;stroke-miterlimit:10;}
	.st12{fill:none;stroke:url(#SVGID_5_);stroke-miterlimit:10;}
	.st13{fill:url(#SVGID_6_);}
	.st14{fill:url(#SVGID_7_);}
	.st15{fill:url(#SVGID_8_);}
	.st16{fill:url(#SVGID_9_);}
	.st17{fill:url(#SVGID_10_);}
	.st18{fill:url(#SVGID_11_);}
	.st19{fill:none;stroke:#040506;stroke-miterlimit:10;}
	.st20{fill:none;stroke:#040506;stroke-width:0.5;stroke-miterlimit:10;}
</style>
<g id="Capa_7">
</g>
<g id="rosa">
	<path class="st0" d="M-1158.7,96.5"/>
	<path class="st0" d="M-1242.8,53"/>
	<path class="st0" d="M-1251.5,51.4"/>
	<path class="st0" d="M-1320.9,39.4"/>
	<path class="st0" d="M-1462.4,48.8"/>
	<g>
		<path class="st1" d="M277.3,496.2c0,0,6.5-19.4,18.4-18.6l2.3-14.8"/>
		<path class="st2" d="M252.4,489.9"/>
		<path class="st1" d="M252.4,489.9c0,0-9.8,13-12.8,23.3c-1.2,4.1-4.7,6.8-8.6,6.8l0,0l-102.9-88.2c0,0-32.2-48.2-44.8-45.3
			c0,0-10-16.2-31.6-13.9c0,0-15.7-7.5-25.6-8.6c-5.5-0.6-10.6-3.2-14.3-7.6c-4.9-5.7-10.6-11.3-11.7-7.7c0,0,0-4.6,14.2-16.8
			l30.1-20.2l36.4-28.9c0,0,13.9,28.4,20.3,23.7l-20.3-30.5c0,0-20.5-34.4-29.1-42.5c-1.9-1.8-2.8-4.6-2.4-7.3
			c0.7-5.1,1.7-12.4,3-16.3c0,0,2.1-16.9-7-30.8c-1.9-2.9-1.7-6.8,0.4-9.4c15.2-18.8,69-87.2,67.8-114.4c-0.1-3.3,2.1-6.1,5.1-6.1
			c18.9-0.6,73.4-4.8,108.2-34.4L238,6c15.1-11.9,36.1-5.3,43.4,13.5c3.3,8.4,7.1,15.4,11.2,17.1c12.1,5.2,24.8-8.7,37.5,3.5
			c0,0,36.4,7,48,12.8c5.1,2.5,6.9,3.1,7.3,2.9c1.1-0.5,2.2-1,3.4-0.8c12.8,2.6,49.1,9.7,68.1,10.2c7.1,0.2,13.6,4.4,16.9,11.3
			c1.5,3.1,3.2,6.4,4.6,9.3c1.8,3.6,4.2,7,7.3,9.3c1.6,1.2,3.3,3.7,3.9,9c0.4,3.4,1.2,6.7,2.5,9.8l19.3,44.6c0,0-3,20.9-7.9,20.9
			c0,0-1.6,18.7-4.5,19.2c-0.6,0.1-0.8,0.1-0.8,0.1c1.7-0.3,3.1,1.5,2.5,3.3c-2.4,8.1-8.1,26-10.9,25.8c-3.7-0.3,11.6,4.1-2.6,38.5
			c0,0,7.4,41.7,26.7,61.6c1.7,1.8,1.3,4.9-0.8,6.1l-10.6,5.6c0,0-6.9,14.9-22.2,9.2"/>
		<path class="st1" d="M467.6,368.5c0,0-40.6,85.3-37.4,101.6c0,0-7.4,10.8-9.8,17.9c-1.1,3.4-3.9,5.8-7.1,6.1
			c-11.4,1.1-33.8,2.3-44.2-3.7c0,0-21.9,19.2-57.6,15.1c0,0-32.6-1.2-34.2-9.3c0,0-13.5,2.9-19.6-0.6l-9.6-10.4h-1.9
			c-6.8,0-13.2-3.1-17.8-8.5l-48-55.9l0.1-0.1c3.4-4.1,2.6-10.6-1.7-13.5c-15.9-10.6-48.4-34.5-46.8-52c0,0-18-14.5-0.1-33.7
			c0,0-8.9-9.1-0.5-20.8c0,0,11.1-29.7,31.1-7.6"/>
		<path class="st1" d="M260.5,391.7c0,0,12.6,8.1,13.7,12.2c0,0,22.4,23.8,37.3,20.3c0,0,8.3,10.4,16.9,5.8l19.9,5.2l16.1-7.5
			c0,0,28.7-5.2,32.5-7c3.8-1.7,30.7-13.3,37-22.6c0,0,31.6-25,30.1-30.8l3.3-3.8l2.6-2.9l2.1-2.4l19.4-22.2l7.2-12.2L484,266.2
			c0,0,2.7-12.2-5.9-29.5c-0.7-1.5-1.6-3.1-2.5-4.6c-11.6-19.7-6-26-31.7-33.6"/>
		<path class="st1" d="M236.5,408.2v-4.6c0,0-6.9-2.2-8.8-6.3c-1.5-3.3-4.1-6-7.3-7c-6.4-2.1-14.9-7.5-19.4-22.1
			c-1.3-4.2-3.8-7.7-7.2-10.1c-4.2-3-9.3-8-9.7-14.6c-0.2-4.3-1.8-8.4-4.4-11.6c-5-6-11.8-16.7-12-31.3c0,0-5.4-10.3-3.1-25.2
			c0.5-3,0.1-6.1-0.8-9.1c-0.8-2.5-1.2-6.2,0.2-11.1c2.9-9.8-17.3-10.9-17.7-38.4c0,0-6.4-5.5,1.2-25.2c1.5-3.8,1.5-8.2-0.2-11.8
			c-2.2-4.7-3.3-12.6,5.3-22.6c0,0,14.6-23.1,21.7-24.8c0,0,31.6-49.2,50.2-47.9c0,0,31.7-29.6,65.9,7"/>
		<path class="st1" d="M336.5,347.9l-33.1,25.2l-17.6,7.5c0,0-29.8-15.1-43.7-17.3c-5-0.8-9.4-3.7-12.2-8.3
			c-13-21.6-43.9-75.3-42.7-96.8l0-27.5c0-5.6,1.4-11.2,4.1-16l17.5-30.9c1.6-2.9,2.9-6,3.7-9.2c2.8-11.3,11.4-39.6,29-44.7
			c0,0,14.7-14.4,22.5-14.5c3.6,0,6.9-1.6,9.1-4.7c7.6-10.8,25.1-28.5,59.1-30.1c0,0,22.3-9.9,26.7-2.3c0,0,17.5,14.2,26.9,17.2
			c2.9,0.9,5.4,3,6.9,5.9c2.9,5.7,8.6,14.1,17.5,18.1c0,0,10.1,7.8,7.4,19.7c0,0,15.8,16.2,16.3,40"/>
		<path class="st1" d="M236.5,217c0,0-5.1,8.2,8.7,26c0,0,3.6,14.4,8.3,16.1c0,0,7.1,14.8,11.9,14.8c0,0,22.7,28.6,33.9,26.7
			c26.6-4.5,51.7-2.6,51.7-2.6c16.9,0,45.9-36.6,45.9-36.6c1.3-40.9-7.1-51.3-7.1-51.3c-2.9-14.5-25.2-30.8-25.2-30.8"/>
		<path class="st1" d="M249.5,259.3l11,39.5l16.8,28.3c0,0-57.4-83.2-44.4-104.9c0,0,3.7-76.2,21.2-78.8c0,0,59.5-48.7,78.1-17.4
			c0,0,17.4-11.3,32.2,1.7c0,0,19.5-5.2,25.9,5.2c0,0,23.3,2.2,24.5,18.3c0,0,16.6,12.8,15,28.1c0,0,17.4-6.9,13.4,26.9
			c0,0,9.1-4.7,0.6,20c0,0,7.3,22.8-0.2,40c0,0-10.7,61.7-28.9,71.7c0,0-10.7,17-24.1,15.7c0,0,3.6,8.3-15.4,13.9
			c0,0-5.9,5.2-22.1,3c0,0-5.9,4.4-14.4,4.4c0,0-13,0.9-17.7,0c0,0-8,6.1-17.6,2.2c0,0-2.5,4.4-8.8,3.5"/>
		<path class="st1" d="M283.4,179.3c0,0-26.4-6.2-47,37.7c0,0,1.6-50.4,59.6-75.7l27.3-2l50.5,16.2l21.1,29.2
			c0,0,11.6,40.6,1.3,52.2"/>
		<path class="st1" d="M238.8,236.8c0,0,25.5,81.5,109.4,74.6c0,0,31.6-15.3,35.8-34.6"/>
		<path class="st1" d="M292,169.5c0,0-23,13.6-11.4,61.5c0,0,3.6,19.7,33.2,35.4c0,0,17.1,12.2,29.5,9.3c0,0,15.3-6.4,16.9-15.1"/>
		<path class="st1" d="M293.9,252.2c0,0-27.7-41.2-3.4-73.1c0,0,1.9-13.9,3.4-18.3c0,0,21.3-2.6,25.7-5.2c0,0,51.8-5.3,58.4,72.2"/>
		<path class="st1" d="M353.2,241.3c5.5,15.3-27,31.2-27,31.2l2.1,1.5c0,0,27-9.1,34.4-34.8c0,0,5.3-15.6-2.9-22.2
			c0,0,2.5-18.7-3.5-18.4c0,0-5.8-1.2-11-5.6c0,0-17.1-16-35.6-3.8c0,0-13.4,8.4-13.4,12.8l-5.8,15v15.2c0,0-0.8,10.2,11.6,25.8"/>
		<path class="st1" d="M307.1,223.5c0,0,19.6,20.8,18.5,22.3l2.7,2.6l12.8-4.4l2.1-2.6c0,0,12.1-1.8,6.3-13.7c0,0,14.2-9.8,1.6-13
			c0,0-15.8-31-44-11.3C307.1,203.4,299.6,215.3,307.1,223.5z"/>
		<path class="st1" d="M303.8,214.1c0,0,8.9-8.4,8.9-9.8c0,0,15.6-15.4,24,4.9c0,0,11.1,20.3,4.5,34.8l-12.8,4.4
			C328.3,248.4,299.8,218,303.8,214.1z"/>
		<path class="st1" d="M325.6,245.8c0,0,8.4-14.1,12.2-21.7c1.1-2.2,1.1-4.8,0-7c-3.6-7-12-21.9-16.8-17.8"/>
		<path class="st1" d="M305.5,216.8l11.8-9.7c1.4-1.1,3.2-1.1,4.6,0l11.6,9.7c0,0,5,6.3,2.1,11"/>
		<path class="st1" d="M322.9,229.2c0,0,8.4-2.9,4.2-6.1C327.1,223.2,322.9,222.6,322.9,229.2z"/>
		<path class="st1" d="M322.9,232.1c0,0,5.5-1.2,6.6-2.9l-1.2-3.1l-5.4,3.1V232.1z"/>
		<path class="st1" d="M325.6,232.1l0.6,3.2l3.3,1.5c0,0,4.7-12.7,1.6-17.9c0,0-5.8-13.4-15.3-7.1c0,0-9.5,11.7-8.7,11.7
			c0.8-0.1,7.5-15.5,18.5-3C325.6,220.5,334.4,231,325.6,232.1z"/>
		<path class="st1" d="M338.7,252.2c0,0,28.7-16.3,17.7-26"/>
		<path class="st1" d="M364.4,261.5c0,0-6.9,22.9-32.2,16.5"/>
		<path class="st1" d="M238.8,162.1l-11.1,11.3l-14.6,30.4c0,0-7.9,27.5,10.3,77.1c0,0,14.6,31.3,30.1,40c0,0,34.1,19.2,52.1,21.3
			c17.9,2.2,1.5,0,1.5,0s37.7,8.3,38.5,6.1c0.8-2.2,23.7-10,24.5-15.2c0,0,7.9,0.4,0-8.7c0,0,24.1-10.4,10.3-26.1"/>
		<path class="st1" d="M211.4,226.2c0,0-19.4,37.9-24.2,35.3"/>
		<path class="st1" d="M411.5,413.8c0,0-1.9,41.8-23.5,54c0,0-5.6,26.8-10,25.7"/>
		<path class="st0" d="M457.1,43.6"/>
		<path class="st2" d="M408.1,45.6"/>
		<path class="st2" d="M397.4,43.5"/>
		<path class="st2" d="M312,27.3"/>
		<path class="st2" d="M137.9,40"/>
		<path class="st1" d="M280.5,427.3c0,0-41.7-8.4-41.7-19.1"/>
		<path class="st1" d="M259.7,68.2c0,0,29.8-40,32.9-31.6"/>
	</g>
</g>
<g id="tulipan">
	<g>
		<defs>
			<path id="SVGID_1_" d="M-1772.9,557.6h-1012.7c-20.7,0-37.5-16.8-37.5-37.5v-798.1c0-20.7,16.8-37.5,37.5-37.5h1012.7
				c20.7,0,37.5,16.8,37.5,37.5v798.1C-1735.5,540.9-1752.2,557.6-1772.9,557.6z"/>
		</defs>
		<clipPath id="SVGID_2_">
			<use xlink:href="#SVGID_1_"  style="overflow:visible;"/>
		</clipPath>
		<path class="st3" d="M-1768.5,557.6h-1012.7c-20.7,0-37.5-16.8-37.5-37.5v-798.1c0-20.7,16.8-37.5,37.5-37.5h1012.7
			c20.7,0,37.5,16.8,37.5,37.5v798.1C-1731,540.9-1747.8,557.6-1768.5,557.6z"/>
	</g>
	<linearGradient id="SVGID_3_" gradientUnits="userSpaceOnUse" x1="-1900.9965" y1="255.1598" x2="-1802.4448" y2="255.1598">
		<stop  offset="0.2868" style="stop-color:#5C57A1"/>
		<stop  offset="0.7944" style="stop-color:#2E2253"/>
	</linearGradient>
	<path class="st4" d="M-1841.6,299.8c23.1-16.4,83.1-67.8-16.2-99.4c-3.6-1.2-7.6,0.4-9.5,3.7l-32.1,55.8c-2.6,4.6-2,10.3,1.6,14.2
		c12.4,13.6,40.4,42.6,47,34.9C-1848,305.7-1845.2,302.4-1841.6,299.8z"/>
	<path class="st5" d="M-1929.5,27.5"/>
	<g>
		
			<image style="overflow:visible;" width="609" height="788" xlink:href="3F54C1DD.png"  transform="matrix(0.24 0 0 0.24 -1904.7825 164.0351)">
		</image>
	</g>
	<linearGradient id="SVGID_4_" gradientUnits="userSpaceOnUse" x1="-2493.0337" y1="178.3947" x2="-1824.0449" y2="178.3947">
		<stop  offset="8.400201e-02" style="stop-color:#59C3E6"/>
		<stop  offset="0.8302" style="stop-color:#59C3E6"/>
	</linearGradient>
	<path class="st6" d="M-2081.4-96.8c0,0,212.8,20.9,178.5,144.1l8.2-7.5c5.9-5.4,14.9-5.7,21.2-0.6c27.4,21.9,88.5,88.4,13.2,204.3
		c-9.5,14.6-21.6,27.3-35.7,37.4c-75.2,54-352.3,239.6-503,157.1c0,0-132.6-177.6-83-181.7C-2481.9,256.2-2233.6-152.7-2081.4-96.8z
		"/>
	<g class="st7">
		
			<image style="overflow:visible;" width="1482" height="1291" xlink:href="3F54C1DF.png"  transform="matrix(0.24 0 0 0.24 -2423.1824 101.1551)">
		</image>
	</g>
	<g class="st8">
		
			<image style="overflow:visible;" width="682" height="620" xlink:href="3F54C1DA.png"  transform="matrix(0.24 0 0 0.24 -2080.9424 -91.5649)">
		</image>
	</g>
	<g class="st7">
		
			<image style="overflow:visible;" width="682" height="621" xlink:href="3F54C1DB.png"  transform="matrix(0.24 0 0 0.24 -2064.3826 -1.8049)">
		</image>
	</g>
	<g class="st9">
		
			<image style="overflow:visible;" width="682" height="620" xlink:href="3F54C1E5.png"  transform="matrix(0.24 0 0 0.24 -2011.3424 28.4351)">
		</image>
	</g>
	<path class="st10" d="M-2333.7,317.9c0,0,531.3-278.8,399.4-361.4"/>
	<path class="st10" d="M-1842.5,82.8c0,0-24.3-62.5-54.9-30.9c-5,5.2-10.7,9.8-16.6,14c-64.7,45-375.5,262.5-375.5,290.6"/>
	<path class="st11" d="M-1944.4-46.7c0,0-79,30.3-30.4,84.1"/>
	<linearGradient id="SVGID_5_" gradientUnits="userSpaceOnUse" x1="-2299.9094" y1="-3.1569" x2="-2103.3467" y2="-3.1569">
		<stop  offset="0.2868" style="stop-color:#5C57A1"/>
		<stop  offset="0.7944" style="stop-color:#454293"/>
	</linearGradient>
	<line class="st12" x1="-2103.7" y1="-101.1" x2="-2299.6" y2="94.8"/>
	<line class="st10" x1="-2082.6" y1="-86.7" x2="-2278.4" y2="109.1"/>
	<line class="st10" x1="-2035.5" y1="-69.8" x2="-2231.3" y2="126.1"/>
	<line class="st10" x1="-2004.5" y1="-60.7" x2="-2200.4" y2="135.1"/>
	<line class="st10" x1="-1974.8" y1="-55" x2="-2170.7" y2="140.9"/>
	<line class="st10" x1="-1999.1" y1="11.2" x2="-2194.9" y2="207"/>
	<line class="st10" x1="-2040.7" y1="-87.4" x2="-2236.5" y2="108.4"/>
	<linearGradient id="SVGID_6_" gradientUnits="userSpaceOnUse" x1="-2484.2986" y1="-111.6258" x2="-2075.1194" y2="-111.6258">
		<stop  offset="8.400201e-02" style="stop-color:#59C3E6"/>
		<stop  offset="0.8302" style="stop-color:#59C3E6"/>
	</linearGradient>
	<path class="st13" d="M-2081.1-164.7c0,0,12.1,10.2-5.6,18.6c0,0,9.3,14.9,0,28.8c0,0-3.7,27.9-15.8,21.4s0,5.6,0,5.6
		s-12.1,13.9-22.3,13.9L-2475.9-29c0,0-37.6-54.3,46-75.2c0,0,297.1-123.2,318.8-81.5c0,0,31.4-4.2,30.7,8.4
		C-2080.4-177.3-2068.1-170.3-2081.1-164.7z"/>
	<linearGradient id="SVGID_7_" gradientUnits="userSpaceOnUse" x1="-2546.2085" y1="56.1666" x2="-2096.6138" y2="56.1666">
		<stop  offset="0.2868" style="stop-color:#5C57A1"/>
		<stop  offset="0.7944" style="stop-color:#2E2253"/>
	</linearGradient>
	<path class="st14" d="M-2515.3,314.7c0,0,23.7,48.7,46,40.4c190.1-160.3,186.7-153,296.6-207.1c0,0,41.1-38.1,41.9-62.1
		c0.2-5.5,2-10.8,5.6-15c12.1-14,34.5-49.7,26.3-116.9c0,0,8.1-3.5-6.3-30.4c-2.5-4.7-3.7-10-3.1-15.3c1.3-12.8-2.7-46.2-50.5-117.2
		c0,0-11.1-12.5-20.9-5.6c0,0-6.3-9.8-7.9-16.8c-0.9-4-4.3-6.9-8.3-6.9h-21.4c0,0-5.6-12.5-16.7,0c0,0-11.1-11.1-23.7,4.2
		c0,0-147.6,2.8-257.6,306.4C-2515.3,72.4-2584.9,231.1-2515.3,314.7z"/>
	<linearGradient id="SVGID_8_" gradientUnits="userSpaceOnUse" x1="-2726.1313" y1="333.7988" x2="-2512.4143" y2="564.2778">
		<stop  offset="6.806705e-02" style="stop-color:#FFFFFF"/>
		<stop  offset="0.5254" style="stop-color:#004010"/>
		<stop  offset="0.8985" style="stop-color:#000000"/>
	</linearGradient>
	<path class="st15" d="M-2783.8,535.6l293.4-209.6c0,0,7,22.2,32,29.2c0,0-5.6,19.4,9.7,26.4c0,0,18.1-42-275.7,175.4l-32.2-1.4
		C-2768.8,555-2779.6,547.1-2783.8,535.6L-2783.8,535.6z"/>
	<linearGradient id="SVGID_9_" gradientUnits="userSpaceOnUse" x1="-2005.3287" y1="501.9068" x2="-1848.6652" y2="286.7555">
		<stop  offset="8.400201e-02" style="stop-color:#59C3E6"/>
		<stop  offset="0.4719" style="stop-color:#321A42"/>
	</linearGradient>
	<path class="st16" d="M-2065.2,466.7c47.1-3,197.3-17.9,241.8-85.7c4.2-6.3-0.5-14.8-8.1-14.9c-32.5-0.2-115.6,9.2-236.3,93.1
		C-2071.2,461.5-2069.4,466.9-2065.2,466.7z"/>
	<g>
		
			<image style="overflow:visible;" width="723" height="741" xlink:href="3F54C1E7.png"  transform="matrix(0.24 0 0 0.24 -2326.2224 -262.2049)">
		</image>
	</g>
	<g>
		
			<image style="overflow:visible;" width="1133" height="1051" xlink:href="3F54C1EA.png"  transform="matrix(0.24 0 0 0.24 -2551.5825 -108.1249)">
		</image>
	</g>
	<g>
		
			<image style="overflow:visible;" width="1108" height="1546" xlink:href="3F54C1EB.png"  transform="matrix(0.24 0 0 0.24 -2508.3826 -53.4049)">
		</image>
	</g>
	<g>
		
			<image style="overflow:visible;" width="606" height="653" xlink:href="3F54C1ED.png"  transform="matrix(0.24 0 0 0.24 -2275.5825 -224.0449)">
		</image>
	</g>
	<path class="st5" d="M-2473.5,119.2"/>
	<linearGradient id="SVGID_10_" gradientUnits="userSpaceOnUse" x1="-2468.9436" y1="376.3694" x2="-1783.5585" y2="376.3694">
		<stop  offset="0.2868" style="stop-color:#5C57A1"/>
		<stop  offset="0.7944" style="stop-color:#2E2253"/>
	</linearGradient>
	<path class="st17" d="M-2468.9,349.2c0,0,121.2,103,335.6-48.7l0,0c0,0,178.2-82.2,208.9-46v0c0,0,47.3-7,54.3,36.2l0,0
		c0,0,91.9,33.4,86.3,76.6c0,0,0,12.1-19.7,9.7c-10.6-1.3-21.3-1.1-31.7,1.1c-47.1,9.8-166.3,37.9-203,76.7
		c-8.7,9.2-18.7,17.2-30.1,22.8c-58.9,28.9-224.4,82.6-400.6-104.7v0V349.2C-2468.9,349.2-2468.9,349.2-2468.9,349.2z"/>
	<g>
		
			<image style="overflow:visible;" width="2199" height="734" xlink:href="274004F6.png"  transform="matrix(0.24 0 0 0.24 -2426.7825 317.8751)">
		</image>
	</g>
	<linearGradient id="SVGID_11_" gradientUnits="userSpaceOnUse" x1="-2554.6895" y1="152.3738" x2="-2472.7412" y2="152.3738">
		<stop  offset="8.400201e-02" style="stop-color:#59C3E6"/>
		<stop  offset="0.4719" style="stop-color:#5C57A1"/>
	</linearGradient>
	<path class="st18" d="M-2472.7,4.8c0,0-151.3,130-42.7,295.2C-2515.4,300-2559.1,82.7-2472.7,4.8z"/>
	<g>
		
			<image style="overflow:visible;" width="1032" height="1390" xlink:href="274004F1.png"  transform="matrix(0.24 0 0 0.24 -2556.6226 164.0351)">
		</image>
	</g>
</g>
<g id="girasol">
	<path class="st19" d="M-1473.6,245c0,0,0,13.8,41.4,23.8c0,0,64.4,26.6,103.1,12.7c0,0,55.2-18.3,70.9-27.8v-25.1
		c0,0-52.5-41.6-134.4,0c0,0-31.3-2.7-42.4,4.3s-1.8-4.3-1.8-4.3s-16.6,22-41.4,19.2"/>
	<path class="st19" d="M-1082.4-86.1c0,0,7.7-41.5-2.5-60.7c-2-3.8,0.8-8.3,5.3-8.3l0,0c0,0,4.9,79.1,26.9,77.7l17.4,78.4l-17,5.1
		L-1082.4-86.1z"/>
	<path class="st19" d="M-805.2,325c0,0,17.5-10.4,27.6,0c0,0,47-15.6,101.3,29.6c0,0,23.6,10.4,51.9,48.7c0,0-123.7,25.2-185.4-61.7
		L-805.2,325z"/>
	<path class="st19" d="M-1258.2,209h7.4c0,0-55.2,38.4-68.1,11.4l-19.3-0.9l-8.7-15.1v-15.2l-9.7-6.8c0,0,46,0.5,48.8-6.4
		c0,0,37.7,14.6,43.3,6.4l19.3,11L-1258.2,209z"/>
	<path class="st19" d="M-788.2,147.9c0,0,108-35.3,127.7-28.5c2.6,0.9,5.2,1.7,7.9,2.1c7,0.9,17.7,2.2,16.5,1
		c-0.3-0.3-0.5-0.5-0.5-0.5c-1.6-1.5,3.3,2.8,5.2,3.9l7,4.1l-47.4,40.3c-1.8,1.5-3.7,2.9-5.8,4.1c-10.1,5.6-41.3,20.5-77.6,15.1
		c-4.7-0.7-9.4-0.5-14.1,0.2c-4.2,0.6-10.6,0.7-18.8-1.7C-788.2,187.9-786.2,151.4-788.2,147.9z"/>
	<path class="st19" d="M-959-185.4l-28.8,57.4l-21.5,132.6l53.4,27.9l24.6-141.4C-931.4-108.9-943-172-959-185.4z"/>
	<path class="st19" d="M-901.3,55.7c0,0-28.2-92.7,135-164.6c0,0-13.5,76.7-54.6,108.5c-3.9,3-7.5,6.4-10.4,10.2
		c-5.3,6.9-13.5,17.9-17.4,24.6c-2.6,4.4-6.5,8.1-11.1,10.8C-869.6,51.1-886.2,58.7-901.3,55.7z"/>
	<path class="st19" d="M-834.7,112.5c0,0-26.9-69.6,117.8-98.5l41.5-9.4c0,0,16,60.4-68.7,97.5
		C-744.2,102.1-792.7,125.3-834.7,112.5z"/>
	<path class="st19" d="M-766.2,190.5l-15.3,10.1l4.3,27.8c0,0,60.2,32.2,124-19l19.3-16.1c2.3-1.9,4.1-4.2,5.4-6.7l8.2-16.2
		c1.8-3.4,4.3-6.4,7.6-8.7l0,0c0,0-16.2-12.5-40.5,0c0,0-4.4,5.6-15.7,6C-669,167.8-720.8,196.1-766.2,190.5z"/>
	<path class="st19" d="M-773.6,238.5c0,0,94.5-17,127.7-6.5l74.9,17.4c0,0-2.5,22-65.1,23.2c0,0-56.5,47.5-145.5,0L-773.6,238.5z"/>
	<path class="st19" d="M-788.2,271.3c0,0,109.1-19.7,158.2,51l-25.8,13.9c0,0-18.9,1.2-50.6,0c0,0-41.5,14.4-91.8-42.6L-788.2,271.3
		z"/>
	<path class="st19" d="M-878,406.6l-14.7,13.1c0,0,61.7,26.1,82.9,91.3c0,0,21.2,10.6,40,9.9l15.3,7.1v-4.8l7.3,1.7
		c0,0-8.9-14.6-4.5-19.7l-106-98.6H-878z"/>
	<path class="st19" d="M-856.3,393.6l-2.8,10.9l122.5,115.2h23v-2.2l3.7,2.2c0,0-11.5-49.1-22.1-59.1c0,0-74.6-95.2-108.6-79.1
		L-856.3,393.6z"/>
	<path class="st19" d="M-825.5,363.5c0,0,10.4-24.9,57.2,17l54.2,26.2c0,0,19,3.6,16.9,23.6c0,0,10.7,6.6,17.4,6.8
		c2.1,0.1,2.5,1,1.1,2.4c-3.1,3.1-9.9,7.2-23.4,5.5c0,0-30.4-4.3-52.5-7.8l-72.7-53.5c-3.8-2.8-4.9-7.7-2.8-11.7L-825.5,363.5z"/>
	<path class="st19" d="M-909.3,415.4c0,0-19.8,25.6-7.8,43.9c0,0,30.4,36.5,29,50.4c0,0,46,44.3,68.1,43.5c0,0,12.4,2.6,18,2.6
		l-13.8-10l20.3,10c0,0-14.4-20.9-9.7-30.9c0,0-28.5-83-87.5-105.2l-6.4-4.3H-909.3z"/>
	<path class="st19" d="M-955.3,436.5c0,0-16,5.3-17.2,30.8c0,0,18.4,6.3,8.6,27.2l20.3,41.2c0,0,11,19.1,0,26.1
		c0,0,12.9,30.1,29.5,42.9c0,0,29.5,30.7,36.2,33.6v-5.8c0,0,4.3,5.2,9.8,5.8c0,0-10.4-27.8-6.8-32.5c0,0-0.6-67.7-13.2-96.1
		C-888.1,509.7-919.1,435.4-955.3,436.5z"/>
	<path class="st19" d="M-1006.9,445.3c0,0,1.2,20.8-11.7,8c0,0-42.4,95.1,59.5,166.3c0,0-0.6,16.2-7.4,10.4c0,0,4.9,9.9,11-11
		c0,0,55.9-78-28.2-169.4c0,0-12.9,1.3-10.4-9.1L-1006.9,445.3z"/>
	<path class="st19" d="M-1041.2,436.5h10.4c0,0,60.2,27.3,16.6,161.1c0,0-8,30.7-22.7,49.8C-1036.9,647.5-1130.2,546.6-1041.2,436.5
		z"/>
	<path class="st19" d="M-1088.5,436.5c0,0-56.5,103.2-49.1,151.3l14.1,50.4h5.5l1.2,5.8c0,0,44.2-46.6,45.4-57.2
		c0,0,25.8-120,6.1-137.2h-7.4l3.7-6.8l-5.5-6.4l-5.3,4.1L-1088.5,436.5z"/>
	<path class="st19" d="M-1113.7,424.9v-5.2c0,0-50.3,7.5-57.7,92.7c0,0-8.6,35.9,18.4,54.5c0,0,22.1-22,32.5-24.9
		c0,0,46-74.8,22.4-115.9L-1113.7,424.9z"/>
	<path class="st19" d="M-1267.7,561.1c0,0-30.7-129.8,97.6-169.2l17.2,17.4c0,0-4.4,49.3-19.7,58c0,0-4.2,16.2-26.3,29
		C-1199,496.2-1228.4,555.3-1267.7,561.1z"/>
	<path class="st19" d="M-1211.9,352.5c0,0-84.6,22.4-101.8,54.1c0,0-19.6,37.5-61.4,34l7.4,9.1l-7.4,8.3c0,0,65.6,21.6,124.9-8.3
		c0,0,65.4-64.7,51.9-76.3C-1198.4,373.4-1215.7,360.6-1211.9,352.5z"/>
	<path class="st19" d="M-1225.1,320.3c0,0-39.6-17.1-117.8,24.6c0,0-23.9,5.2-45.1,30.4c0,0,122.5,47.5,166.6-29.3l9.4-15.1
		l-10.4-2.6L-1225.1,320.3z"/>
	<path class="st19" d="M-1242.6,298.9l5.5-13.4h-12l12-7.5h-15.7l-5.5-9.2c0,0-160.2,4-190.6,40.5c0,0,27.6,21.7,60.8,15.6
		c0,0,126.1,28.7,133.5-13.9L-1242.6,298.9z"/>
	<path class="st19" d="M-1243.6,174.6c0,0-95.3,38.3-208.1-66.9c0,0,55.2-54.8,211.8,48.7L-1243.6,174.6z"/>
	<path class="st19" d="M-1294.1,144.4"/>
	<path class="st19" d="M-1294.1,143.3l3.4-1.7l-1.7-6.1l2.9-1.2l1.5-9.3v-4.3l1.5-3.2v-9l3.1-2l-1.2-5.8l1.2-3.8l1.2-1.4v-4.6
		c0,0,51.9,13.3,60.5,49.8v10.4C-1221.7,151.1-1265.9,160.4-1294.1,143.3z"/>
	<path class="st19" d="M-1198.4,100.8l-8.9-25.4c-2.6-7.4-7.4-14-13.7-19.1c-33.5-26.4-143.3-110.1-174.4-99.1
		C-1395.4-42.8-1353,106.2-1198.4,100.8z"/>
	<path class="st19" d="M-1188.5,78.9l19.6-18.5c0,0-39.3-125.2-206.2-131v8.1h-7.4C-1382.5-62.5-1263.4,80.1-1188.5,78.9z"/>
	<path class="st19" d="M-1251.1-146.5c0,0-22.2,47.1,27.1,129.8c0,0,33,73.3,90.7,73.2c0,0,32.5-51.7-61.4-158.9
		C-1194.7-102.5-1225.4-135.5-1251.1-146.5z"/>
	<path class="st19" d="M-1186.7-155.2c0,0-12.5,14.4-5.3,55.9c0,0,18.2,110.1,86.9,127.9l11.7-3l-55.2-134.5
		C-1148.6-108.9-1181.8-139.6-1186.7-155.2z"/>
	<path class="st19" d="M-1147.4-157.6l3.6,2.3l3.1-5.2c0,0,79.8,64.9,88.4,161.1c0,0-2.5,18-6.1,19.7l-15.3,4.6l-19.6-7l-55.2-126.9
		C-1148.6-108.9-1153.6-125.1-1147.4-157.6z"/>
	<path class="st19" d="M-1014.2-185.4c0,0-26.4,38.3-26.4,44.6l-11.1,73.5c-0.4,2.6-0.3,5.3,0.4,7.9l3.9,15.6c0,0,1.8,60.1,27,63.6
		c0,0,61.1-93.7,32.5-147.8l-20.9-57.4H-1014.2z"/>
	<path class="st19" d="M-895.8-146.5c0,0-17.8,11.6-31.9,35.4l-3.7,2.3l-25.8,146.1l11.7,5.8c0,0,58.3-25.5,56.5-94.8
		C-889-51.8-875.5-115.8-895.8-146.5z"/>
	<path class="st19" d="M-858.3,84.7l101.9-55.1c5.2-2.8,9.5-6.7,12.6-11.5c11.4-17.4,36.5-61.5,23-93.3c0,0-28.8-7.6-95.2,71.9
		c-3.8,4.5-8.3,8.5-13.2,12C-841.2,16.8-864.8,39.2-858.3,84.7z"/>
	<line class="st19" x1="-1003.5" y1="-94.4" x2="-1003.5" y2="-94.4"/>
	<path class="st19" d="M-805.5,141.5c0,0,17.8-69.9,118.5-77.3c3.4-0.2,6.7-0.9,9.9-2c9.9-3.5,33.3-10.1,41,1.7l-14.3,28
		c-1.5,2.9-3.7,5.5-6.4,7.5l-16.4,12.4c-8.8,6.6-18.7,11.8-29.3,15.2C-729.8,135.8-783.2,150.8-805.5,141.5z"/>
	<g>
		<polygon class="st19" points="-776.4,322.9 -771.2,321.6 -780.3,323.3 -780.4,323.9 		"/>
		<path class="st19" d="M-837.4,88.9h0.2C-837.1,88.9-837.5,87.8-837.4,88.9z"/>
		<path class="st19" d="M-779.8,216.1v-9.3l3.7-5.2l10.4-3.5h-8.6l3.1-4.6h-11l-3.1-5.8v-9.9l1.2-8.1l-2.5-2.9l7.4,2.9l3.1-6.4h-7.4
			l-6.1-2.3l6.1-7h-8l8-7.5v-4.1l-6.8,8.7v-6.4l-5.2,6.4h-12l1.8-8.1l3.1-6.4l7.1-15.4h-3.7h-7.7h-8l-10.4-2.6l-1.8-2.9h-1.5
			l0.6-2.6l2.8-1.4l-2.1-1.2l-3.1,1.2l-1.8,4.1h-2.5l-3.7-4.3l4.9-7.8l-3.4,2.3v-6.7l-0.3-2c0,0,0.6-3.8,0-7
			c-0.1-0.7-0.2-1.2-0.2-1.4h-1.9h-2.8v-3.2v-2.3l-4,5.5l-2.5-3.5l-1.5,3.5h-4v-2.6v-3.2h-3.7h-3.1V77l-1.2-3.2v-1.4l1.2-1.7
			l-2.1-1.2h-1.5h-5.5v-5.2l-2.1-0.3l-1.5,2l-3.4-2.6v-1.7v-1.7l-7.4-2.3l-2.1-2.3l-3.7,4.6h-7.4h-3.1l-1.8-2.6l1.8-7v-4.1v-1.4
			v-6.1l-1.5,1.2l-1.2,4.1l-4.9-1.7v-2.6v-2.3v-2v-4.9h-1.5l-1.5,2l-3.7,1.4h-5.5h-1.9l-4-1.7l-1.2-4.1l-3.1,2.9l-2.1,3.2l-1.2-2
			v5.2h-5.5c0,0-2.5-3.5-2.5-5.8c0-2.3-1.8-1.7-1.8-1.7h-2.1l-1.2,4.9l-2.1-2.9v-2.3h-1.8l-2.5,2.3l-1.5-2.3l-1.2-5.2h-2.5v-2.9
			l-3.1-2l-5.5-3.5l-2.5,5.8l-2.9-0.3v-2l2.9-2l-1.2-1.4h-3.4v2l-1.2,4.9l-2.5-2.7c0.1-0.9,0.1-2-0.2-2.8c-0.8-1.8-3.3-1.9-4.8-2.7
			l-1-1.1c-0.4-1.3,1.2-2,0.9-4.1c-0.2-1.7-1.6-3.3-2.5-3.2c-1.4,0.2-1.4,4.9-2.1,4.9c-0.8,0-1.3-4.9-2.1-4.9
			c-0.3,0-0.3,0.6-1.2,1.6c-0.8,0.8-1.7,1.2-1.9,1.3c0,0-0.1,0.1-0.2,0.1c-0.9,0.4-4.4,1.1-6.2-0.4c-1.8-1.5-0.6-3.9-1.8-4.3
			c-1.3-0.5-4.1,1.5-4,3.2c0,0.1,0,0.1,0,0.3c0.1,1.1,0,2.8-0.6,3.2c-1.3,0.9-4.7-3.1-6.1-2.3c-1.5,0.8,0.3,6.3,0,6.4
			c-0.2,0-0.4-2.1-1.8-2.9c-1.3-0.7-3.5-0.3-4.6,0.9c-1.3,1.4-0.4,3.5-0.1,5.3l-4.1,0.6c0.2-0.8,0.3-1.6-0.1-2.4
			c-0.7-1.4-2.7-1.8-4.3-2c-2.6-5.6-2.6-5.6-2.8-5.5c-0.1,0,0.9,1.5,0.4,3c-0.1,0.2-0.3,0.7-0.7,1c-1.3,0.9-4.2,0.1-4.9-1.4
			c-1-2.1,2.4-4.8,1.5-5.8c-0.5-0.5-1.4,0.2-3.7,0c-0.5,0-1.9-0.2-3.4-0.9c-1.6-0.7-2.5-1.7-3.1-2.3c-1.6-1.7-3.7-3.8-6.4-6.4
			c-0.9,0.5-1.8,1-2.8,1.4l5.5,7.2v11.3l-5.5-9l-2.1,10.4l-7.7-4.6l-2.7,1.4c3.3,4.1,3,7.8,2.1,10.3l0,0l0,0
			c-0.8,2.2-2.1,3.6-2.1,3.6c-3.4,0.3-4.3-10.4-4.3-10.4c-3.1,8.4-7.7,2.9-7.7,2.9c-4.9-0.6-1.2-5.2-1.2-5.2v-2
			c-11-3.2-2.8,7.8-2.8,7.8l-3.4,2.9l-8.6-7.2l-1.5,3.5l-1.8,1.2l1.8,3.5v1.4l-4.6-1.4l-1.8,2.9v2.3h-2.8h-2.1v-1.7h-6.4v-3.5
			l-4,2.3l-3.4-2.3l-1.2,3.2h-2.8v5.8l-3.7-2.3v4.6l-6.1-2.6l1.5,8.4l-39,4.9v10.4l-2.8,4.1l-5.5,4.6l2.5,3.5l-12.9,4.6l-4.3-12.8
			l-3.1,6.4h-10.4l0.6,8.1l2.5,15.6l9.8,1.2l-3.7,11l-6.1-7l-9.2,7l-9.2-4.6l-2.5,8.7h-9.8l8,3.5l-3.1,3.5l4.3,5.2l12.3,11.6
			l-14.1,5.8l-1.8,13.9l-5.5-4.1l-0.6,2.9l-6.8,2.9l-8.6,4.1l16.6,1.7l1.2,7l-8.6,3.5l-3.7,7l-7.4-4.1v5.2h-12.3l3.7,9.9l-3.7,3.5
			l4.3,3.5l8,8.1l11.7,5.8l-8.6,6.4l-9.8,7l6.1,1.7l-11.7,6.4l8.6,5.2l5.5,9.3l-14.1,5.8l3.7,4.6l8.6,4.6l-6.1,0.6l-6.1,6.4l9.2-0.6
			l8.6,5.8l-4.3,0.6l1.2,8.7l6.1-1.7l5.5,6.4l-9.2,5.2l9.2,1.7l-8,1.2l3.7,6.4l-22.1,19.1l35.6,0.6l4.9,5.2v9.3l8.7-5.7l3.6-2.4
			l2.5,13.3l-6.1-4.1l1.2,11h-9.8l9.8,4.1l-5.5,7h9.8l15.3,2.9l-7.4,3.5l9.8,2.3v9.9l3.7,5.2l7.4,2.9l-3.7,16.2l10.4-2.9l6.1,2.9
			v-5.2V390h4.9v8.7l3.7-2.9l3.1,1.7v3.5v5.8v8.7v5.2l7.4-0.6l9.2,8.7v-2.9l2.5-2.9l2.5,5.8l6.8-5.2l11.7,1.7v-3.5l9.2-6.4l4.3,2.3
			v5.2l8,4.1l3.1,19.7l4.3-0.6l8-4.6l3.1,2.3v-4.6l5.5,2.3l3.1,2.9v6.4l3.7-2.9v5.2l5.5,7l3.7,2.3l3.7-8.1l3.7-4.6l3.1-4.6l4.9-2.3
			l5.5,2.9c0,0,0,0-1.8-5.8c-1.8-5.8,0-3.5,0-3.5v-9.3h8l3.7,8.7v6.4l13.5,14.5l8.6-7V445l4.3-1.7l4.3,0.6l6.8,4.1l7.4,7.5l5.2,7.5
			l4.6,3.5v-7.5l1.8-5.2v-4.1l1.8-2.9l4.9,4.1l5.5-6.4l-1.2-3.5l6.1-2.3l12.3,2.3l5.5,7l11.9,11v-12.8v-9.9l3.4-9.9l8-3.5l7.4-4.1
			l0.6,12.8l6.1-4.6l-3.7-8.1l12.9,3.5l-4.9-7h7.4l9.8-5.8l16.6-5.2v-7V394l2.5-7l8-3.5h7.4l7.4-4.6l4.9,4.6l3.7-3.5l2.5-4.6
			l-4.9-12.8h6.8l21.5-2.3l-8-5.8l-5.5-8.7l9.2-5.8c0,0,0,0-4.3-2.3c-4.3-2.3-1.8-4.1-1.8-4.1l4.3-7.5h9.8l15.4-2.9l0.6-15.6
			l-10.4-2.9l1.2-5.2l-1.8-5.8h-10.4l9.2-14.5l1.8,2.9h9.2l3.7-9.3l3.1-4.6l-1.2-2.9l-2.5-4.6l-3.1-4.1l3.1-6.4h6.1h6.1v-7.5h-3.1
			h-3.1l-3.7-4.6l-3.1-8.1h12.9v-8.7l-12.3,3.5L-779.8,216.1z"/>
	</g>
	<g>
		
			<image style="overflow:visible;" width="1251" height="1289" xlink:href="274004F2.png"  transform="matrix(0.24 0 0 0.24 -1153.5825 63.2351)">
		</image>
	</g>
	<ellipse class="st19" cx="-1115.2" cy="67.5" rx="8.3" ry="7.8"/>
	<ellipse class="st19" cx="-1035.3" cy="105.4" rx="8.3" ry="7.8"/>
	<ellipse class="st19" cx="-1158.4" cy="190.5" rx="8.3" ry="7.8"/>
	<ellipse class="st19" cx="-1173.8" cy="172.4" rx="5.7" ry="5.4"/>
	<ellipse class="st19" cx="-1138.3" cy="120.5" rx="5.7" ry="5.4"/>
	<ellipse class="st19" cx="-1151.8" cy="145.5" rx="5.7" ry="5.4"/>
	<ellipse class="st19" cx="-1098.5" cy="87.4" rx="5.7" ry="5.4"/>
	<ellipse class="st19" cx="-1093.4" cy="105.4" rx="5.7" ry="5.4"/>
	<ellipse class="st19" cx="-1057.8" cy="88.1" rx="5.7" ry="5.4"/>
	<ellipse class="st19" cx="-1173.8" cy="250.8" rx="5.7" ry="5.4"/>
	<ellipse class="st19" cx="-1151.8" cy="260" rx="5.7" ry="5.4"/>
	<ellipse class="st19" cx="-1146.1" cy="285.5" rx="5.7" ry="5.4"/>
	<ellipse class="st19" cx="-1125" cy="319.3" rx="5.7" ry="5.4"/>
	<ellipse class="st19" cx="-1184.9" cy="345.5" rx="5.7" ry="5.4"/>
	<ellipse class="st19" cx="-1210.8" cy="309.6" rx="5.7" ry="5.4"/>
	<ellipse class="st19" cx="-1231.3" cy="205.7" rx="5.7" ry="5.4"/>
	<ellipse class="st19" cx="-1231.3" cy="263.7" rx="5.7" ry="5.4"/>
	<ellipse class="st19" cx="-1085.6" cy="409.1" rx="5.7" ry="5.4"/>
	<ellipse class="st19" cx="-989.7" cy="425.1" rx="5.7" ry="5.4"/>
	<ellipse class="st19" cx="-920.9" cy="403.7" rx="5.7" ry="5.4"/>
	<ellipse class="st19" cx="-868.1" cy="383.3" rx="5.7" ry="5.4"/>
	<ellipse class="st19" cx="-831.1" cy="350.9" rx="5.7" ry="5.4"/>
	<ellipse class="st19" cx="-802.3" cy="310.8" rx="5.7" ry="5.4"/>
	<ellipse class="st19" cx="-792.4" cy="246.7" rx="5.7" ry="5.4"/>
	<ellipse class="st19" cx="-798.2" cy="197.4" rx="5.7" ry="5.4"/>
	<ellipse class="st19" cx="-825.5" cy="133.8" rx="5.7" ry="5.4"/>
	<ellipse class="st19" cx="-892.5" cy="78.7" rx="5.7" ry="5.4"/>
	<ellipse class="st19" cx="-1013.5" cy="38.7" rx="5.7" ry="5.4"/>
	<ellipse class="st19" cx="-1065.8" cy="38.7" rx="5.7" ry="5.4"/>
	<ellipse class="st19" cx="-1142.5" cy="385.3" rx="5.7" ry="5.4"/>
	<ellipse class="st19" cx="-1071.3" cy="375.3" rx="5.7" ry="5.4"/>
	<ellipse class="st19" cx="-1102.3" cy="316.2" rx="2.9" ry="2.7"/>
	<ellipse class="st19" cx="-1130.5" cy="336" rx="2.9" ry="2.7"/>
	<ellipse class="st19" cx="-1138.3" cy="301.6" rx="2.9" ry="2.7"/>
	<ellipse class="st19" cx="-1128.7" cy="277.5" rx="2.9" ry="2.7"/>
	<ellipse class="st19" cx="-1142.5" cy="245.4" rx="2.9" ry="2.7"/>
	<ellipse class="st19" cx="-1181.1" cy="209" rx="2.9" ry="2.7"/>
	<ellipse class="st19" cx="-1141.1" cy="192" rx="2.9" ry="2.7"/>
	<ellipse class="st19" cx="-1176" cy="189.3" rx="2.9" ry="2.7"/>
	<ellipse class="st19" cx="-1165.5" cy="136.5" rx="2.9" ry="2.7"/>
	<ellipse class="st19" cx="-1165.4" cy="156.4" rx="2.9" ry="2.7"/>
	<ellipse class="st19" cx="-1139.7" cy="136" rx="2.9" ry="2.7"/>
	<ellipse class="st19" cx="-1185.6" cy="112.7" rx="2.9" ry="2.7"/>
	<ellipse class="st19" cx="-1115.2" cy="155.4" rx="2.9" ry="2.7"/>
	<ellipse class="st19" cx="-1138.3" cy="158.1" rx="2.9" ry="2.7"/>
	<ellipse class="st19" cx="-1123.8" cy="194.7" rx="2.9" ry="2.7"/>
	<ellipse class="st19" cx="-1176.7" cy="234.7" rx="2.9" ry="2.7"/>
	<ellipse class="st19" cx="-1162" cy="211.1" rx="5.7" ry="5.4"/>
	<ellipse class="st19" cx="-1150.1" cy="172.7" rx="5.7" ry="5.4"/>
	<ellipse class="st19" cx="-1160.1" cy="102.4" rx="8.3" ry="7.8"/>
	<ellipse class="st19" cx="-1039.8" cy="70.9" rx="8.3" ry="7.8"/>
	<ellipse class="st19" cx="-1071.3" cy="108.7" rx="8.3" ry="7.8"/>
	<ellipse class="st19" cx="-1104.9" cy="120.5" rx="8.3" ry="7.8"/>
	<ellipse class="st19" cx="-1188.2" cy="136" rx="8.3" ry="7.8"/>
	<ellipse class="st19" cx="-1205" cy="183.2" rx="8.3" ry="7.8"/>
	<ellipse class="st19" cx="-1132" cy="213.8" rx="8.3" ry="7.8"/>
	<ellipse class="st19" cx="-1125" cy="255.9" rx="8.3" ry="7.8"/>
	<ellipse class="st19" cx="-1193.9" cy="274.5" rx="8.3" ry="7.8"/>
	<ellipse class="st19" cx="-1210.8" cy="230.6" rx="8.3" ry="7.8"/>
	<ellipse class="st19" cx="-1159.8" cy="232" rx="8.3" ry="7.8"/>
	<ellipse class="st19" cx="-1113.1" cy="291.5" rx="8.3" ry="7.8"/>
	<ellipse class="st19" cx="-1167.4" cy="319.6" rx="8.3" ry="7.8"/>
	<ellipse class="st19" cx="-1091.4" cy="346.3" rx="8.3" ry="7.8"/>
	<ellipse class="st19" cx="-1113.5" cy="369.7" rx="8.3" ry="7.8"/>
	<ellipse class="st19" cx="-1126.7" cy="175.2" rx="8.3" ry="7.8"/>
	<ellipse class="st19" cx="-1074.1" cy="71.1" rx="8.3" ry="7.8"/>
	<ellipse class="st19" cx="-1122.3" cy="138.7" rx="8.3" ry="7.8"/>
	<ellipse class="st19" cx="-1128.3" cy="92.6" rx="8.3" ry="7.8"/>
	<ellipse class="st19" cx="-825.5" cy="171.3" rx="8.3" ry="7.8"/>
	<ellipse class="st19" cx="-912.4" cy="151.7" rx="8.3" ry="7.8"/>
	<ellipse class="st19" cx="-876.3" cy="291.7" rx="8.3" ry="7.8"/>
	<ellipse class="st19" cx="-852.1" cy="287.2" rx="5.7" ry="5.4"/>
	<ellipse class="st19" cx="-844" cy="225.8" rx="5.7" ry="5.4"/>
	<ellipse class="st19" cx="-850.6" cy="253.2" rx="5.7" ry="5.4"/>
	<ellipse class="st19" cx="-851.8" cy="176.4" rx="5.7" ry="5.4"/>
	<ellipse class="st19" cx="-868" cy="187" rx="5.7" ry="5.4"/>
	<ellipse class="st19" cx="-883.4" cy="152.1" rx="5.7" ry="5.4"/>
	<ellipse class="st19" cx="-905.6" cy="347.1" rx="5.7" ry="5.4"/>
	<ellipse class="st19" cx="-928.7" cy="340.8" rx="5.7" ry="5.4"/>
	<ellipse class="st19" cx="-950.5" cy="356.9" rx="5.7" ry="5.4"/>
	<ellipse class="st19" cx="-989.7" cy="369.9" rx="5.7" ry="5.4"/>
	<ellipse class="st19" cx="-1004.9" cy="353.7" rx="2.9" ry="2.7"/>
	<ellipse class="st19" cx="-996.9" cy="386" rx="2.9" ry="2.7"/>
	<ellipse class="st19" cx="-967.5" cy="364.4" rx="2.9" ry="2.7"/>
	<ellipse class="st19" cx="-958.4" cy="340.1" rx="2.9" ry="2.7"/>
	<ellipse class="st19" cx="-925.9" cy="323.9" rx="2.9" ry="2.7"/>
	<ellipse class="st19" cx="-871.5" cy="319.6" rx="2.9" ry="2.7"/>
	<ellipse class="st19" cx="-847.6" cy="333.9" rx="2.9" ry="2.7"/>
	<ellipse class="st19" cx="-890.6" cy="282.3" rx="2.9" ry="2.7"/>
	<ellipse class="st19" cx="-862" cy="301.4" rx="2.9" ry="2.7"/>
	<ellipse class="st19" cx="-834" cy="254.7" rx="2.9" ry="2.7"/>
	<ellipse class="st19" cx="-847.6" cy="269.8" rx="2.9" ry="2.7"/>
	<ellipse class="st19" cx="-853.5" cy="238.6" rx="2.9" ry="2.7"/>
	<ellipse class="st19" cx="-885.4" cy="238.5" rx="2.9" ry="2.7"/>
	<ellipse class="st19" cx="-869.6" cy="254.6" rx="2.9" ry="2.7"/>
	<ellipse class="st19" cx="-905.7" cy="273.8" rx="2.9" ry="2.7"/>
	<ellipse class="st19" cx="-892.5" cy="336.6" rx="2.9" ry="2.7"/>
	<ellipse class="st19" cx="-887.6" cy="309.6" rx="5.7" ry="5.4"/>
	<ellipse class="st19" cx="-870.5" cy="272.9" rx="5.7" ry="5.4"/>
	<ellipse class="st19" cx="-814.9" cy="225.3" rx="8.3" ry="7.8"/>
	<ellipse class="st19" cx="-885.5" cy="128" rx="8.3" ry="7.8"/>
	<ellipse class="st19" cx="-887.1" cy="176.1" rx="8.3" ry="7.8"/>
	<ellipse class="st19" cx="-869.5" cy="205.5" rx="8.3" ry="7.8"/>
	<ellipse class="st19" cx="-816.4" cy="268.1" rx="8.3" ry="7.8"/>
	<ellipse class="st19" cx="-835.7" cy="314.4" rx="8.3" ry="7.8"/>
	<ellipse class="st19" cx="-912.3" cy="293.4" rx="8.3" ry="7.8"/>
	<ellipse class="st19" cx="-946.4" cy="321.4" rx="8.3" ry="7.8"/>
	<ellipse class="st19" cx="-906.5" cy="377.5" rx="8.3" ry="7.8"/>
	<ellipse class="st19" cx="-863.6" cy="354.1" rx="8.3" ry="7.8"/>
	<ellipse class="st19" cx="-903.5" cy="324.2" rx="8.3" ry="7.8"/>
	<ellipse class="st19" cx="-979.8" cy="341.4" rx="8.3" ry="7.8"/>
	<ellipse class="st19" cx="-957.5" cy="395.9" rx="8.3" ry="7.8"/>
	<ellipse class="st19" cx="-1044.4" cy="344.1" rx="8.3" ry="7.8"/>
	<ellipse class="st19" cx="-1032.9" cy="401.4" rx="8.3" ry="7.8"/>
	<ellipse class="st19" cx="-979.6" cy="78.1" rx="5.7" ry="5.4"/>
	<ellipse class="st19" cx="-999.7" cy="93.5" rx="8.3" ry="7.8"/>
	<ellipse class="st19" cx="-952.7" cy="109.3" rx="8.3" ry="7.8"/>
	<ellipse class="st19" cx="-941.3" cy="52" rx="8.3" ry="7.8"/>
	<ellipse class="st19" cx="-890.1" cy="260.6" rx="8.3" ry="7.8"/>
	<ellipse class="st19" cx="-859.3" cy="149" rx="8.3" ry="7.8"/>
	<ellipse class="st19" cx="-868.6" cy="230" rx="8.3" ry="7.8"/>
	<ellipse class="st19" cx="-832.5" cy="198.4" rx="8.3" ry="7.8"/>
	<path class="st20" d="M-784.7,103.4c0,0-5.3,7.3-19.2,5.9"/>
	<path class="st20" d="M-957.1-166.8c0,0-1.4,163.1-8.6,175.6"/>
	<path class="st20" d="M-965.7-148.3c0,0-23.5,124.6-13.9,152.4"/>
	<path class="st20" d="M-1019.3,6.5c0,0-14.4-31.9-7.8-41.7"/>
	<path class="st20" d="M-1019.3-170.9c0,0-18.6,101.5-9.5,125.8"/>
	<path class="st20" d="M-1013.5-166.8c0,0-15.7,71.3-5.7,99.1"/>
	<path class="st20" d="M-1013.5-72.1l5.3-11.7c3.2-7,4.5-14.6,4-22.1l-5-70.8"/>
	<path class="st20" d="M-937.5,32.6c0,0,54.1-146.6,39.3-170.4"/>
	<line class="st20" x1="-904.1" y1="-14.4" x2="-925.2" y2="19.8"/>
	<polyline class="st20" points="-904.1,-130.9 -941.3,-9.8 -944.4,22.1 	"/>
	<path class="st20" d="M-892.5,44.1c0,0,76.7-132.1,105.8-135.6"/>
	<line class="st20" x1="-786.7" y1="-79" x2="-876.9" y2="38.7"/>
	<path class="st20" d="M-851-45.1c0,0-47,54.6-41.4,67.2"/>
	<path class="st20" d="M-728.2-72.1c0,0-95.2,137.6-115.8,139.6"/>
	<path class="st20" d="M-757.7-54.4c0,0-90.9,99.4-88.4,114.1"/>
	<path class="st20" d="M-728.2-52.7c0,0-51.8,96.5-70,96.5"/>
	<path class="st20" d="M-685.2,19.8c0,0-129.4,48.1-131.9,81"/>
	<path class="st20" d="M-700,44.1c0,0-89.8,59.7-108.1,58.3"/>
	<path class="st20" d="M-653.3,67.5c0,0-141.4,55.3-139.1,66.3"/>
	<path class="st20" d="M-666.8,87.4c0,0-92.3,45.4-108.9,45.9"/>
	<path class="st20" d="M-632.5,128.4c0,0-73.7,64.6-130.7,50.7"/>
	<line class="st20" x1="-697.8" y1="152.7" x2="-771.2" y2="171"/>
	<path class="st20" d="M-704.9,130.9c0,0-63.2,9-60.8,28.6"/>
	<path class="st20" d="M-632.5,175.2c0,0-101.4,55-130.7,38.6"/>
	<path class="st20" d="M-632.5,163.5c0,0-101.8,38.8-130.7,45.5"/>
	<path class="st20" d="M-653.3,194.7c0,0-52.8,39.7-89.6,30.5"/>
	<path class="st20" d="M-605.4,251.9c0,0-154.4-13.5-157.7,5.4"/>
	<path class="st20" d="M-620.2,260.6c0,0-76.2-4.4-77.7,6.5"/>
	<path class="st20" d="M-632.5,241.3c0,0-49.1-12.9-65.3-3.4"/>
	<path class="st20" d="M-728.2,293.4c0,0-33.3-21.9-47.6-9.6"/>
	<path class="st20" d="M-639.5,321.6c0,0-125.2-5.8-136.3-28.1"/>
	<path class="st20" d="M-700,329.2c0,0-52.8-4.4-71.2-21.7"/>
	<path class="st20" d="M-632.5,395.9c0,0-109.8-77.2-154.2-63.8"/>
	<path class="st20" d="M-639.5,401.4c0,0-91.8-13.8-123.7-47.8"/>
	<path class="st20" d="M-704.9,430.5c0,0-61.5-30.5-81.8-47.2"/>
	<path class="st20" d="M-721.3,434.5c0,0-56.3-38.2-59.1-30.8"/>
	<path class="st20" d="M-833.7,398.3c0,0,78.5,25.8,98.2,98"/>
	<path class="st20" d="M-834,403.7c0,0,81.6,43,70.8,70.8"/>
	<path class="st20" d="M-811.7,496.2c0,0,31.3,21.7,40.5,20.9"/>
	<path class="st20" d="M-866.8,409.2c0,0,86.4,66.1,91,87"/>
	<path class="st20" d="M-911.3,447.2c0,0,49.3,79.4,74.5,87.2"/>
	<path class="st20" d="M-892.5,434.5c0,0,26.5,82.6,80.8,111.3"/>
	<path class="st20" d="M-893.4,617.1c0,0-74.5-116.9-65-150.6"/>
	<path class="st20" d="M-944.8,466.5c0,0,41.1,48,38.3,79.3"/>
	<path class="st20" d="M-999.7,447.2c0,0,48.1,80.3,24.2,102.9"/>
	<path class="st20" d="M-1004.9,460.6c0,0-10.7,31.3,5.2,56.5"/>
	<path class="st20" d="M-1032.9,634.5c0,0,13.5-106.1,0-109.5"/>
	<path class="st20" d="M-1035.7,445.6c0,0-32.4,59.3-17,93.2"/>
	<path class="st20" d="M-1083.1,545.8c0,0-19.1,55.6-30.4,88.7"/>
	<path class="st20" d="M-1116.7,529.8c0,0-2.4,63.8-7,70.7"/>
	<path class="st20" d="M-1083.1,474.5c0,0-15.8,98.2-33.7,115.6"/>
	<path class="st20" d="M-1123.8,434.5c0,0-35.8,24.6-24.5,46.7"/>
	<path class="st20" d="M-1105.2,434.5c0,0-15.9,101.1-37.4,100"/>
	<path class="st20" d="M-1168.1,419.7c0,0-16.4,42.3-34.3,54.8"/>
	<path class="st20" d="M-1179.6,406.9c0,0-39.1,7.5-36.9,32.1"/>
	<path class="st20" d="M-1265.9,534.5c0,0,70.9-134.3,97.8-120"/>
	<path class="st20" d="M-1349.3,447.2c0,0,114.9,3.3,136-58.5"/>
	<path class="st20" d="M-1219,375.3c0,0-72.6,58.9-95.9,59.2"/>
	<path class="st20" d="M-1231.3,393.6c0,0-14.6,23-45.6,37"/>
	<path class="st20" d="M-1265.9,306.6c0,0-70.9,28.8-105.6,13"/>
	<line class="st20" x1="-1329.7" y1="353.7" x2="-1231.3" y2="326.7"/>
	<path class="st20" d="M-1225.4,334.3c0,0-104.3,59.9-154.7,35.5"/>
	<path class="st20" d="M-1231.3,342.8c0,0-60.4,51.3-105.8,35.1"/>
	<path class="st20" d="M-1265.9,299.4c0,0-76.1,25.4-120.3,16.1"/>
	<path class="st20" d="M-1265.9,290.9"/>
	<path class="st20" d="M-1276.9,292.6"/>
	<path class="st20" d="M-1416.9,306.6c0,0,140-34.5,151-15.7"/>
	<path class="st20" d="M-1416.9,258.6c0,0,139.9,13.3,139.9-7.8"/>
	<path class="st20" d="M-1386.2,271.1c0,0,74.1,7.1,83.5-2"/>
	<line class="st20" x1="-1431.3" y1="250.8" x2="-1346.9" y2="241.3"/>
	<path class="st20" d="M-1337.1,209c0,0,66.9,18.7,71.2,2.2"/>
	<path class="st20" d="M-1267,205.5c0,0-73.4-21.9-77.4-10.8"/>
	<path class="st20" d="M-1305.7,230c0,0,36.5-2.5,32.8-4.2"/>
	<path class="st20" d="M-1437.7,105.4c0,0,139,69.6,178.6,62.9"/>
	<path class="st20" d="M-1412.9,99.8c0,0,107.8,15.5,115.1,40.3"/>
	<path class="st20" d="M-1424.8,125.9c0,0,113,55.8,135.6,49.3"/>
	<path class="st20" d="M-1377.9-23.7c0,0,120.7,117.3,158.9,118.2"/>
	<path class="st20" d="M-1348.4,27.6c0,0,37.7,37.2,54.3,39.9"/>
	<path class="st20" d="M-1302.7,27.6c0,0,88.2,49,89.4,64.9"/>
	<path class="st20" d="M-1355.3-63.7c0,0,146.3,58.7,153.2,107.8"/>
	<path class="st20" d="M-1231.3-9.8c0,0-49-40-97.8-53.9"/>
	<path class="st20" d="M-1357-52.7c0,0,118.6,112.4,152,108.1"/>
	<path class="st20" d="M-1237-124.4c0,0,108,140.3,95.9,163.1"/>
	<path class="st20" d="M-1225.6-67.7c0,0,63,106.4,73.7,106.4"/>
	<path class="st20" d="M-1178.3-120.2c0,0,30.6,42.7,37.9,61.8"/>
	<line class="st20" x1="-1146.1" y1="-35.3" x2="-1104.3" y2="27.6"/>
	<path class="st20" d="M-1128.3-137.9c0,0,45.8,67.5,45.9,83.5c0,0,10.2,61.5,19.4,63.2"/>
	<path class="st20" d="M-1133.3-99.3c0,0,44.6,114.9,59.2,114.8"/>
</g>
<g id="letra">
	
		<text transform="matrix(1.5713 0 0 1 -1822.3579 542.4858)" style="fill:#F0E4EE; font-family:'NiagaraSolid-Reg'; font-size:111.7506px;">h</text>
	<g>
		
			<text transform="matrix(1.2055 1.662 -0.8095 0.5872 -1816.9139 486.2145)" style="fill:#F0E4EE; font-family:'NiagaraSolid-Reg'; font-size:57.6199px;">l</text>
	</g>
</g>
<g id="margarita_foto">
	<g>
		<defs>
			<rect id="SVGID_12_" x="-842.1" y="-254.2" width="453.9" height="370.5"/>
		</defs>
		<clipPath id="SVGID_13_">
			<use xlink:href="#SVGID_12_"  style="overflow:visible;"/>
		</clipPath>
		<g style="clip-path:url(#SVGID_13_);">
			
				<image style="overflow:visible;" width="365" height="386" xlink:href="../../../../../Downloads/margarita.jpg"  transform="matrix(1.3938 0 0 1.3938 -860.7139 -263.2606)">
			</image>
		</g>
	</g>
</g>
<g id="margarita">
</g>
</svg>
